<mxfile host="65bd71144e">
    <diagram id="ixseVsMfYqmNw1DMRlkg" name="Página-1">
        <mxGraphModel dx="807" dy="513" grid="1" gridSize="10" guides="1" tooltips="1" connect="1" arrows="1" fold="1" page="1" pageScale="1" pageWidth="827" pageHeight="1169" math="0" shadow="0">
            <root>
                <mxCell id="0"/>
                <mxCell id="1" parent="0"/>
                <mxCell id="4" value="" style="edgeStyle=none;html=1;sketch=1;shadow=1;fontSize=16;" parent="1" source="2" target="3" edge="1">
                    <mxGeometry relative="1" as="geometry"/>
                </mxCell>
                <mxCell id="2" value="&lt;font style=&quot;font-size: 16px;&quot;&gt;INICIO&lt;/font&gt;" style="ellipse;whiteSpace=wrap;html=1;sketch=1;shadow=1;fillColor=#0050ef;fontColor=#ffffff;strokeColor=#001DBC;fontSize=16;" parent="1" vertex="1">
                    <mxGeometry x="231" width="96" height="60" as="geometry"/>
                </mxCell>
                <mxCell id="6" value="" style="edgeStyle=none;html=1;sketch=1;shadow=1;fontSize=16;" parent="1" source="3" target="5" edge="1">
                    <mxGeometry relative="1" as="geometry"/>
                </mxCell>
                <mxCell id="3" value="con = 0" style="whiteSpace=wrap;html=1;sketch=1;shadow=1;fillColor=#60a917;fontColor=#ffffff;strokeColor=#2D7600;fontSize=16;" parent="1" vertex="1">
                    <mxGeometry x="224.88" y="90" width="106" height="40" as="geometry"/>
                </mxCell>
                <mxCell id="8" value="" style="edgeStyle=none;html=1;sketch=1;shadow=1;fontSize=16;" parent="1" source="5" target="7" edge="1">
                    <mxGeometry relative="1" as="geometry"/>
                </mxCell>
                <mxCell id="5" value="cod, nota1,&lt;br style=&quot;font-size: 16px;&quot;&gt;nota2, nota3" style="shape=parallelogram;perimeter=parallelogramPerimeter;whiteSpace=wrap;html=1;fixedSize=1;sketch=1;shadow=1;fillColor=#008a00;fontColor=#ffffff;strokeColor=#005700;fontSize=16;" parent="1" vertex="1">
                    <mxGeometry x="213.38" y="160" width="131.25" height="60" as="geometry"/>
                </mxCell>
                <mxCell id="14" value="" style="edgeStyle=none;html=1;fontColor=#F0F0F0;endSize=7;sketch=1;shadow=1;fontSize=16;" parent="1" source="7" target="13" edge="1">
                    <mxGeometry relative="1" as="geometry"/>
                </mxCell>
                <mxCell id="19" style="edgeStyle=none;html=1;exitX=1;exitY=0.5;exitDx=0;exitDy=0;entryX=0;entryY=0.5;entryDx=0;entryDy=0;fontColor=#F0F0F0;endSize=7;sketch=1;shadow=1;fontSize=16;" parent="1" source="7" target="9" edge="1">
                    <mxGeometry relative="1" as="geometry"/>
                </mxCell>
                <mxCell id="7" value="cod 0&amp;nbsp;&lt;span style=&quot;font-family: arial, sans-serif; font-size: 16px; text-align: left;&quot;&gt;≠ 0&lt;/span&gt;" style="rhombus;whiteSpace=wrap;html=1;sketch=1;shadow=1;fillColor=#60a917;fontColor=#ffffff;strokeColor=#2D7600;fontSize=16;" parent="1" vertex="1">
                    <mxGeometry x="213.75" y="244" width="135.5" height="60" as="geometry"/>
                </mxCell>
                <mxCell id="12" value="" style="edgeStyle=none;html=1;fontColor=#F0F0F0;endSize=7;sketch=1;shadow=1;fontSize=16;" parent="1" source="9" target="11" edge="1">
                    <mxGeometry relative="1" as="geometry"/>
                </mxCell>
                <mxCell id="9" value="con" style="shape=document;whiteSpace=wrap;html=1;boundedLbl=1;sketch=1;shadow=1;fillColor=#008a00;fontColor=#ffffff;strokeColor=#005700;fontSize=16;" parent="1" vertex="1">
                    <mxGeometry x="442.5" y="241.5" width="101.5" height="67" as="geometry"/>
                </mxCell>
                <mxCell id="11" value="FIN" style="ellipse;whiteSpace=wrap;html=1;sketch=1;shadow=1;fillColor=#0050ef;fontColor=#ffffff;strokeColor=#001DBC;fontSize=16;" parent="1" vertex="1">
                    <mxGeometry x="444" y="351" width="101.5" height="67" as="geometry"/>
                </mxCell>
                <mxCell id="16" value="" style="edgeStyle=none;html=1;fontColor=#F0F0F0;endSize=7;sketch=1;shadow=1;fontSize=16;" parent="1" source="13" target="15" edge="1">
                    <mxGeometry relative="1" as="geometry"/>
                </mxCell>
                <mxCell id="13" value="notafin = (nota1 + nota2 + nota3)&lt;br style=&quot;font-size: 16px;&quot;&gt;&amp;nbsp; &amp;nbsp; &amp;nbsp; &amp;nbsp; &amp;nbsp; &amp;nbsp; &amp;nbsp;-----------------------------------&lt;br style=&quot;font-size: 16px;&quot;&gt;&amp;nbsp; &amp;nbsp; &amp;nbsp; &amp;nbsp; &amp;nbsp; &amp;nbsp; &amp;nbsp;3" style="whiteSpace=wrap;html=1;sketch=1;shadow=1;fillColor=#008a00;fontColor=#ffffff;strokeColor=#005700;fontSize=16;" parent="1" vertex="1">
                    <mxGeometry x="158" y="360" width="247" height="76" as="geometry"/>
                </mxCell>
                <mxCell id="18" value="" style="edgeStyle=none;html=1;fontColor=#F0F0F0;endSize=7;sketch=1;shadow=1;fontSize=16;" parent="1" source="15" target="17" edge="1">
                    <mxGeometry relative="1" as="geometry"/>
                </mxCell>
                <mxCell id="15" value="cod&amp;nbsp;&lt;br style=&quot;font-size: 16px;&quot;&gt;notafin" style="shape=document;whiteSpace=wrap;html=1;boundedLbl=1;sketch=1;shadow=1;fillColor=#60a917;fontColor=#ffffff;strokeColor=#2D7600;fontSize=16;" parent="1" vertex="1">
                    <mxGeometry x="224.88" y="481" width="110.75" height="76" as="geometry"/>
                </mxCell>
                <mxCell id="21" value="" style="edgeStyle=none;html=1;fontColor=#F0F0F0;endSize=7;exitX=0;exitY=0.5;exitDx=0;exitDy=0;sketch=1;shadow=1;fontSize=16;" parent="1" source="17" edge="1">
                    <mxGeometry relative="1" as="geometry">
                        <mxPoint x="280" y="751" as="targetPoint"/>
                        <Array as="points">
                            <mxPoint x="180" y="651"/>
                            <mxPoint x="180" y="751"/>
                        </Array>
                    </mxGeometry>
                </mxCell>
                <mxCell id="22" style="edgeStyle=none;html=1;exitX=1;exitY=0.5;exitDx=0;exitDy=0;fontColor=#F0F0F0;endSize=7;sketch=1;shadow=1;fontSize=16;" parent="1" source="17" edge="1">
                    <mxGeometry relative="1" as="geometry">
                        <mxPoint x="340" y="651" as="sourcePoint"/>
                        <mxPoint x="280" y="751" as="targetPoint"/>
                        <Array as="points">
                            <mxPoint x="380" y="651"/>
                            <mxPoint x="380" y="751"/>
                        </Array>
                    </mxGeometry>
                </mxCell>
                <mxCell id="17" value="notafin &amp;lt; 3.0&amp;nbsp;" style="rhombus;whiteSpace=wrap;html=1;sketch=1;shadow=1;fillColor=#008a00;fontColor=#ffffff;strokeColor=#005700;fontSize=16;" parent="1" vertex="1">
                    <mxGeometry x="217" y="610" width="131" height="79" as="geometry"/>
                </mxCell>
                <mxCell id="27" value="" style="edgeStyle=none;html=1;fontColor=#F0F0F0;endSize=7;exitX=0.5;exitY=1;exitDx=0;exitDy=0;sketch=1;shadow=1;fontSize=16;" parent="1" source="20" edge="1">
                    <mxGeometry relative="1" as="geometry">
                        <mxPoint x="170" y="750" as="sourcePoint"/>
                        <mxPoint x="279" y="320" as="targetPoint"/>
                        <Array as="points">
                            <mxPoint x="279" y="910"/>
                            <mxPoint x="140" y="910"/>
                            <mxPoint x="140" y="610"/>
                            <mxPoint x="140" y="460"/>
                            <mxPoint x="140" y="320"/>
                        </Array>
                    </mxGeometry>
                </mxCell>
                <mxCell id="20" value="cod, nota1,&lt;br style=&quot;font-size: 16px;&quot;&gt;nota2, nota3" style="shape=parallelogram;perimeter=parallelogramPerimeter;whiteSpace=wrap;html=1;fixedSize=1;sketch=1;shadow=1;fillColor=#60a917;fontColor=#ffffff;strokeColor=#2D7600;fontSize=16;" parent="1" vertex="1">
                    <mxGeometry x="209.63" y="821" width="141.25" height="62" as="geometry"/>
                </mxCell>
                <mxCell id="25" value="" style="edgeStyle=none;html=1;fontColor=#F0F0F0;endSize=7;entryX=0.5;entryY=0;entryDx=0;entryDy=0;sketch=1;shadow=1;fontSize=16;" parent="1" target="20" edge="1">
                    <mxGeometry relative="1" as="geometry">
                        <mxPoint x="280" y="751" as="sourcePoint"/>
                        <mxPoint x="280.2239430284858" y="801.0674662668665" as="targetPoint"/>
                    </mxGeometry>
                </mxCell>
            </root>
        </mxGraphModel>
    </diagram>
</mxfile>